<svg width="3051" height="1008" viewBox="0 0 3051 1008" fill="none" xmlns="http://www.w3.org/2000/svg">
<path d="M21.4721 377.431C18.6385 377.468 15.8263 376.936 13.2029 375.864C10.5794 374.792 8.19833 373.204 6.20119 371.194C2.22787 367.168 0 361.74 0 356.084C0 350.428 2.22787 345 6.20119 340.975L339.15 9.10158C341.027 6.70465 343.393 4.73376 346.089 3.31931C348.786 1.90485 351.752 1.07907 354.791 0.896575C357.831 0.714083 360.874 1.17905 363.721 2.26071C366.567 3.34237 369.151 5.01607 371.303 7.17109C373.454 9.32612 375.123 11.9133 376.2 14.7616C377.276 17.6099 377.736 20.6543 377.548 23.6935C377.36 26.7326 376.529 29.6973 375.11 32.3912C373.69 35.0852 371.715 37.4471 369.315 39.3207L36.3666 371.247C32.4144 375.197 27.0591 377.42 21.4721 377.431Z" fill="#793F90"/>
<path d="M176.869 521.107C171.985 521.12 167.25 519.427 163.481 516.321C159.121 512.737 156.344 507.582 155.751 501.969C155.157 496.356 156.794 490.734 160.308 486.317L456.047 120.676C457.664 118.098 459.81 115.892 462.343 114.204C464.875 112.517 467.737 111.386 470.74 110.887C473.742 110.387 476.816 110.531 479.759 111.308C482.701 112.085 485.446 113.477 487.81 115.393C490.175 117.309 492.106 119.706 493.476 122.423C494.845 125.141 495.623 128.119 495.756 131.159C495.89 134.2 495.377 137.234 494.25 140.062C493.124 142.889 491.411 145.446 489.224 147.562L193.485 513.203C191.472 515.667 188.938 517.654 186.065 519.021C183.192 520.388 180.051 521.1 176.869 521.107Z" fill="#793F90"/>
<path d="M2006.15 955.358C1985.06 955.732 1964.32 949.959 1946.46 938.743C1911.67 916.536 1896.94 878.036 1890.7 849.699C1879.14 797.272 1866.88 711.132 1856.99 641.929C1852.26 608.537 1848.12 579.77 1845.37 564.123C1834.94 504.437 1868.76 458.356 1931.41 446.634C1944.03 444.203 1957.01 444.38 1969.56 447.155C1982.11 449.929 1993.96 455.241 2004.37 462.765C2028.62 480.24 2044.59 508.846 2049.38 543.421C2050.18 546.372 2050.34 549.459 2049.86 552.478C2049.37 555.497 2048.25 558.377 2046.56 560.927C2044.87 563.477 2042.66 565.638 2040.07 567.266C2037.49 568.894 2034.58 569.951 2031.55 570.367C2028.52 570.783 2025.44 570.549 2022.51 569.679C2019.58 568.81 2016.86 567.326 2014.55 565.325C2012.24 563.325 2010.38 560.854 2009.1 558.079C2007.82 555.303 2007.14 552.286 2007.12 549.228C2003.94 526.376 1994.1 507.986 1979.42 497.393C1973.69 493.263 1967.16 490.366 1960.24 488.886C1953.33 487.405 1946.18 487.372 1939.26 488.79C1920.71 492.177 1878.44 505.62 1887.32 556.702C1890.17 572.833 1894.36 602.085 1899.14 635.853C1908.39 700.754 1921.08 789.583 1932.27 840.45C1936.78 860.937 1946.84 888.36 1969.32 902.717C1985.45 912.88 2006.26 915.245 2031.64 909.6C2075.57 899.867 2079.44 865.185 2071.21 804.693L2070.73 801.251C2065.67 767.182 2058.74 733.417 2049.97 700.109C2032.87 703.227 2007.49 707.744 1985.77 710.863C1982.84 711.684 1979.77 711.873 1976.76 711.418C1973.75 710.963 1970.87 709.874 1968.31 708.224C1965.75 706.573 1963.57 704.398 1961.92 701.843C1960.26 699.288 1959.17 696.411 1958.71 693.401C1958.25 690.392 1958.43 687.319 1959.25 684.387C1960.06 681.454 1961.49 678.727 1963.44 676.388C1965.39 674.049 1967.81 672.15 1970.55 670.816C1973.29 669.483 1976.27 668.745 1979.32 668.653C2014.43 663.276 2060.94 654.404 2061.42 654.296C2066.74 653.179 2072.28 654.146 2076.91 656.998C2081.53 659.85 2084.88 664.369 2086.27 669.621C2097.83 710.999 2106.81 753.058 2113.15 795.552L2113.64 798.886C2119.44 841.902 2131.65 931.162 2040.99 951.272C2029.56 953.894 2017.88 955.264 2006.15 955.358Z" fill="#793F90"/>
<path d="M1749.88 996.763C1674.17 996.763 1640.67 937.024 1635.13 883.092C1628.57 819.965 1627.28 647.146 1628.03 598.806C1629.54 502.018 1683.63 482.876 1715.79 480.188C1781.6 474.434 1819.14 508.901 1828.71 582.352L1865.81 842.065C1872.31 913.633 1843.6 988.213 1765.26 996.01C1759.88 996.494 1754.77 996.763 1749.88 996.763ZM1729.55 522.236C1726.27 522.236 1722.89 522.236 1719.39 522.666C1706.38 523.796 1671.86 526.753 1671 599.451C1670.3 647.146 1671.48 817.223 1677.83 878.682C1679.87 897.986 1691.59 960.521 1761.22 953.477C1830.86 946.434 1824.51 857.174 1823.6 847.012L1786.5 587.944C1786.5 587.944 1786.5 587.944 1786.5 587.621C1779.78 535.518 1758.91 522.236 1729.55 522.236Z" fill="#793F90"/>
<path d="M2652.53 690.646C2648.85 690.662 2645.22 689.718 2642.02 687.908C2638.81 686.097 2636.13 683.483 2634.25 680.322L2392.76 279.138C2390.62 274.345 2390.3 268.933 2391.87 263.923C2393.44 258.913 2396.79 254.651 2401.29 251.94C2405.79 249.229 2411.12 248.256 2416.28 249.205C2421.45 250.154 2426.09 252.96 2429.33 257.092L2671.02 658.276C2672.9 661.52 2673.89 665.198 2673.91 668.944C2673.92 672.691 2672.96 676.377 2671.11 679.636C2669.27 682.896 2666.6 685.617 2663.38 687.529C2660.15 689.441 2656.49 690.478 2652.74 690.538L2652.53 690.646Z" fill="#793F90"/>
<path d="M1508.56 1008H1508.07C1502.42 1007.83 1497.07 1005.45 1493.17 1001.36C1489.26 997.276 1487.12 991.819 1487.21 986.169L1490.76 830.234C1490.93 824.642 1493.27 819.336 1497.28 815.441C1501.3 811.546 1506.67 809.369 1512.27 809.371H1512.75C1518.39 809.54 1523.74 811.917 1527.64 815.991C1531.54 820.064 1533.69 825.508 1533.61 831.148L1530.06 987.083C1529.91 992.685 1527.58 998.004 1523.56 1001.91C1519.54 1005.82 1514.16 1008 1508.56 1008Z" fill="#793F90"/>
<path d="M1512.1 851.958H1510.92C1505.7 851.628 1500.77 849.403 1497.07 845.701C1493.36 841.998 1491.14 837.073 1490.81 831.847C1484.3 718.015 1370.04 526.591 1368.86 524.44C1367 519.677 1366.91 514.411 1368.58 509.583C1370.26 504.755 1373.6 500.683 1378.01 498.094C1382.42 495.506 1387.6 494.571 1392.63 495.458C1397.67 496.344 1402.22 498.994 1405.48 502.932C1409.19 509.062 1475.38 619.722 1511.08 727.156C1552.97 547.239 1607.87 461.044 1610.34 456.904C1611.66 454.143 1613.55 451.694 1615.89 449.721C1618.23 447.748 1620.96 446.296 1623.9 445.463C1626.84 444.63 1629.93 444.435 1632.96 444.89C1635.98 445.345 1638.88 446.44 1641.44 448.102C1644.01 449.764 1646.2 451.955 1647.85 454.528C1649.5 457.101 1650.59 459.998 1651.04 463.024C1651.48 466.051 1651.28 469.138 1650.44 472.079C1649.59 475.02 1648.13 477.747 1646.15 480.079C1645.45 481.155 1573.35 595.794 1533.24 834.428C1532.31 839.355 1529.69 843.803 1525.83 847.003C1521.97 850.204 1517.12 851.956 1512.1 851.958Z" fill="#793F90"/>
<path d="M1032.36 948.906C1030.54 948.897 1028.74 948.644 1026.99 948.153C1021.56 946.631 1016.95 943.04 1014.14 938.153C1011.34 933.266 1010.56 927.473 1011.98 922.021L1047.26 791.304C1047.67 788.276 1048.73 785.372 1050.35 782.784C1051.98 780.196 1054.14 777.984 1056.68 776.296C1059.23 774.607 1062.11 773.481 1065.12 772.992C1068.14 772.503 1071.23 772.662 1074.18 773.46C1077.13 774.257 1079.87 775.674 1082.23 777.615C1084.59 779.557 1086.51 781.98 1087.86 784.721C1089.21 787.463 1089.96 790.461 1090.06 793.515C1090.16 796.569 1089.61 799.61 1088.45 802.435L1053.12 933.097C1051.87 937.643 1049.16 941.652 1045.41 944.508C1041.66 947.364 1037.08 948.91 1032.36 948.906Z" fill="#793F90"/>
<path d="M1067.8 818.243C1065.83 818.241 1063.88 817.97 1061.99 817.437C1057.16 816.041 1052.97 812.995 1050.15 808.83C1047.33 804.665 1046.06 799.643 1046.56 794.638C1065.59 614.345 1021.66 446.258 1021.23 444.537C1020.61 439.374 1021.88 434.161 1024.81 429.863C1027.74 425.566 1032.13 422.475 1037.16 421.163C1042.19 419.851 1047.53 420.406 1052.18 422.726C1056.84 425.046 1060.49 428.974 1062.47 433.783C1083.69 521.637 1094.31 611.718 1094.09 702.099C1175.98 563.263 1261.48 488.468 1265.73 484.757C1270.08 481.832 1275.36 480.6 1280.56 481.295C1285.76 481.989 1290.53 484.561 1293.97 488.527C1297.41 492.493 1299.27 497.579 1299.22 502.827C1299.17 508.075 1297.2 513.123 1293.69 517.02C1292.5 518.041 1175.39 621.12 1087.05 806.253C1085.27 809.846 1082.53 812.873 1079.13 814.991C1075.73 817.11 1071.8 818.236 1067.8 818.243Z" fill="#793F90"/>
<path d="M2806.04 586.921C2802.99 586.911 2799.97 586.248 2797.18 584.978C2794.4 583.708 2791.92 581.859 2789.91 579.555C2652.8 421.254 2529.34 450.129 2528.16 450.505C2524.38 451.417 2520.42 451.289 2516.71 450.134C2513 448.978 2509.68 446.839 2507.08 443.944C2504.49 441.048 2502.73 437.504 2501.99 433.689C2501.25 429.874 2501.56 425.929 2502.88 422.275C2503.42 420.877 2556.22 278.439 2510.52 172.779C2509.06 167.746 2509.49 162.354 2511.73 157.617C2513.97 152.879 2517.86 149.121 2522.67 147.048C2527.48 144.975 2532.89 144.73 2537.87 146.359C2542.85 147.988 2547.06 151.379 2549.72 155.895C2588.65 245.854 2567.57 353.18 2552.94 405.606H2554.07C2607.41 405.606 2712.32 424.749 2822.23 551.755C2824.82 554.87 2826.49 558.655 2827.02 562.674C2827.56 566.693 2826.95 570.782 2825.27 574.469C2823.58 578.156 2820.88 581.292 2817.49 583.514C2814.1 585.737 2810.15 586.955 2806.1 587.029L2806.04 586.921Z" fill="#793F90"/>
<path d="M478.523 731.135C474.767 731.094 471.088 730.07 467.851 728.165C464.615 726.261 461.933 723.542 460.073 720.279C458.213 717.016 457.24 713.323 457.251 709.568C457.261 705.812 458.255 702.125 460.133 698.872L698.176 294.409C700.493 290.386 704.074 287.241 708.362 285.462C712.649 283.683 717.404 283.369 721.889 284.569C759.905 294.301 789.586 316.509 805.502 346.943C825.989 386.142 824.43 438.353 800.878 501.426C774.799 571.328 736.353 598.214 708.715 607.946C694.657 613.185 679.647 615.381 664.678 614.389C649.708 613.397 635.119 609.24 621.875 602.193C619.133 600.953 616.681 599.152 614.678 596.906C612.676 594.659 611.167 592.017 610.249 589.151C609.332 586.285 609.026 583.258 609.351 580.266C609.677 577.275 610.627 574.384 612.139 571.783C613.652 569.181 615.694 566.925 618.133 565.162C620.572 563.399 623.353 562.168 626.298 561.547C629.243 560.926 632.285 560.931 635.228 561.56C638.171 562.189 640.95 563.428 643.384 565.198C651.253 569.12 659.847 571.374 668.628 571.818C677.409 572.262 686.187 570.887 694.412 567.779C721.889 557.886 744.903 529.763 760.98 486.532C780.176 435.073 782.489 394.745 767.809 366.677C758.737 350.171 744.047 337.465 726.406 330.866L497.074 720.596C495.165 723.814 492.45 726.479 489.197 728.328C485.944 730.176 482.264 731.144 478.523 731.135Z" fill="#793F90"/>
<path d="M702.694 843.14C699.146 843.104 695.662 842.191 692.552 840.482C689.443 838.774 686.804 836.322 684.872 833.346C682.939 830.371 681.773 826.963 681.477 823.427C681.181 819.892 681.764 816.338 683.175 813.082L874.115 384.637C876.016 380.424 879.223 376.937 883.262 374.69C887.3 372.443 891.955 371.556 896.537 372.162C932.187 377.163 961.062 393.67 979.613 419.265C1005.53 455.023 1012.31 508.256 999.777 577.405C988.324 640.639 954.448 670.751 928.047 684.946C892.182 704.142 850.187 704.035 827.227 694.087C824.55 693.032 822.112 691.45 820.057 689.435C818.002 687.42 816.373 685.014 815.265 682.358C814.157 679.702 813.594 676.851 813.608 673.974C813.622 671.096 814.213 668.251 815.347 665.606C816.48 662.961 818.133 660.57 820.207 658.576C822.281 656.581 824.734 655.023 827.422 653.993C830.109 652.964 832.975 652.484 835.851 652.583C838.727 652.681 841.554 653.355 844.164 654.566C852.714 658.276 880.567 661.502 907.829 646.93C934.123 632.842 950.845 606.817 957.674 569.554C968.052 512.235 963.75 470.025 944.931 444.054C935.346 431.036 921.617 421.668 906.001 417.491L722.105 830.45C720.42 834.199 717.696 837.386 714.256 839.635C710.816 841.884 706.803 843.1 702.694 843.14Z" fill="#793F90"/>
<path d="M289.412 371.248C285.629 371.225 281.92 370.205 278.658 368.291C230.264 339.9 177.676 291.345 137.617 238.327C135.46 236.151 133.794 233.538 132.728 230.665C131.663 227.792 131.224 224.725 131.44 221.668C131.657 218.612 132.524 215.637 133.984 212.943C135.443 210.249 137.461 207.897 139.903 206.047C142.345 204.196 145.155 202.888 148.143 202.211C151.131 201.534 154.23 201.504 157.231 202.121C160.232 202.739 163.067 203.991 165.545 205.793C168.023 207.595 170.088 209.906 171.6 212.571C208.487 261.341 256.612 305.809 300.22 331.512C304.133 333.958 307.156 337.598 308.841 341.894C310.527 346.19 310.786 350.914 309.58 355.369C308.375 359.823 305.768 363.772 302.146 366.631C298.524 369.491 294.078 371.11 289.466 371.248H289.412Z" fill="#793F90"/>
<path d="M2173.05 913.74C2168.22 913.71 2163.54 912.055 2159.77 909.04C2155.99 906.026 2153.34 901.829 2152.25 897.125C2100.79 669.406 2084.55 488.468 2091.22 410.285C2091.6 406.436 2093.02 402.764 2095.33 399.654C2097.63 396.545 2100.72 394.113 2104.29 392.616C2107.86 391.119 2111.76 390.612 2115.59 391.147C2119.42 391.683 2123.04 393.242 2126.06 395.66C2180.15 440.235 2300.6 584.771 2411.04 800.177C2412.76 802.7 2413.91 805.558 2414.44 808.563C2414.96 811.567 2414.84 814.648 2414.08 817.602C2413.32 820.556 2411.95 823.315 2410.04 825.696C2408.14 828.077 2405.75 830.025 2403.03 831.412C2400.31 832.799 2397.33 833.592 2394.29 833.74C2391.24 833.887 2388.2 833.385 2385.36 832.267C2382.52 831.148 2379.96 829.44 2377.83 827.254C2375.7 825.068 2374.07 822.455 2373.03 819.588C2286.08 649.726 2191.5 523.849 2132.83 461.152C2134.45 550.089 2152.68 704.25 2194.08 887.715C2195.29 893.238 2194.27 899.015 2191.25 903.795C2188.23 908.575 2183.45 911.974 2177.95 913.257C2176.34 913.592 2174.7 913.754 2173.05 913.74Z" fill="#793F90"/>
<path d="M2168.11 758.612C2158.36 758.785 2148.63 757.646 2139.18 755.224C2136.16 754.792 2133.26 753.72 2130.68 752.08C2128.11 750.44 2125.91 748.271 2124.23 745.716C2122.56 743.16 2121.45 740.278 2120.98 737.26C2120.51 734.243 2120.68 731.159 2121.49 728.214C2122.31 725.27 2123.74 722.532 2125.69 720.184C2127.64 717.835 2130.07 715.929 2132.82 714.593C2135.56 713.256 2138.56 712.52 2141.62 712.434C2144.67 712.347 2147.71 712.912 2150.53 714.09C2189.67 724.844 2278.28 693.334 2289.95 664.459C2290.77 661.54 2292.19 658.827 2294.13 656.497C2296.07 654.167 2298.48 652.274 2301.2 650.94C2303.93 649.607 2306.9 648.864 2309.93 648.761C2312.96 648.657 2315.98 649.195 2318.78 650.339C2321.59 651.483 2324.12 653.208 2326.22 655.4C2328.31 657.592 2329.92 660.201 2330.93 663.058C2331.95 665.914 2332.35 668.953 2332.1 671.974C2331.86 674.996 2330.98 677.932 2329.53 680.591C2310.28 728.178 2225.37 758.612 2168.11 758.612Z" fill="#793F90"/>
<path d="M2362.87 606.979C2358.1 606.837 2353.52 605.117 2349.85 602.091C2346.17 599.065 2343.6 594.903 2342.54 590.258C2341.48 585.613 2341.99 580.749 2344 576.428C2346 572.107 2349.39 568.573 2353.62 566.382C2388.08 549.875 2422.44 532.13 2455.78 513.687C2460.64 511.744 2466.05 511.64 2470.98 513.396C2475.91 515.152 2480.03 518.647 2482.57 523.225C2485.11 527.803 2485.9 533.15 2484.77 538.264C2483.65 543.379 2480.71 547.908 2476.48 551.004C2442.39 569.877 2407.28 587.998 2372.06 604.775C2369.2 606.182 2366.06 606.935 2362.87 606.979Z" fill="#F0783B"/>
<path d="M1360.69 789.638H1358.91C1320.57 786.412 1281.96 782.056 1244.11 776.679C1241.2 776.423 1238.38 775.576 1235.8 774.192C1233.23 772.808 1230.97 770.915 1229.16 768.629C1227.34 766.342 1226.01 763.709 1225.24 760.892C1224.48 758.074 1224.29 755.13 1224.7 752.239C1225.11 749.347 1226.11 746.57 1227.62 744.076C1229.14 741.581 1231.15 739.421 1233.53 737.729C1235.91 736.036 1238.61 734.845 1241.46 734.229C1244.32 733.614 1247.27 733.585 1250.13 734.146C1287.18 739.523 1324.98 743.664 1362.46 746.783C1367.62 747.655 1372.29 750.381 1375.59 754.45C1378.89 758.52 1380.59 763.652 1380.37 768.885C1380.15 774.118 1378.03 779.091 1374.41 782.872C1370.78 786.653 1365.9 788.983 1360.69 789.423V789.638Z" fill="#F0783B"/>
<path d="M2850.89 552.562C2847.29 552.551 2843.74 551.633 2840.59 549.895C2837.43 548.157 2834.76 545.654 2832.82 542.615C2698.4 329.037 2634.95 165.091 2618.55 101.695C2617.63 97.9339 2617.75 93.9958 2618.88 90.2958C2620.02 86.5959 2622.14 83.2713 2625 80.6726C2627.87 78.0738 2631.39 76.2974 2635.18 75.5304C2638.98 74.7635 2642.91 75.0346 2646.56 76.3151C2720.6 103.2 2875.89 204.128 3041.72 361.3C3044.18 363.105 3046.23 365.413 3047.73 368.072C3049.23 370.73 3050.15 373.678 3050.43 376.718C3050.7 379.758 3050.32 382.822 3049.32 385.706C3048.32 388.589 3046.71 391.227 3044.61 393.442C3042.51 395.658 3039.97 397.401 3037.14 398.556C3034.31 399.71 3031.27 400.25 3028.22 400.14C3025.17 400.029 3022.18 399.27 3019.45 397.913C3016.71 396.557 3014.3 394.634 3012.36 392.272C2872.29 259.727 2747.33 174.931 2673.98 136.001C2701.62 213.968 2762.38 350.384 2868.96 519.87C2870.93 523.109 2872.01 526.812 2872.09 530.603C2872.17 534.395 2871.24 538.14 2869.41 541.459C2867.58 544.779 2864.9 547.554 2861.64 549.504C2858.39 551.454 2854.68 552.509 2850.89 552.562Z" fill="#793F90"/>
<path d="M2772.49 404.532C2770.66 404.532 2768.89 404.532 2767.11 404.532C2761.5 404.012 2756.32 401.309 2752.68 397.005C2749.04 392.701 2747.23 387.14 2747.65 381.518C2747.81 378.712 2748.53 375.966 2749.78 373.444C2751.02 370.922 2752.75 368.674 2754.88 366.834C2757 364.994 2759.48 363.6 2762.15 362.732C2764.83 361.865 2767.65 361.543 2770.45 361.785C2789.37 363.559 2827.01 347.051 2854.33 318.768C2870.03 302.637 2878.2 286.022 2876.86 273.493C2876.15 270.524 2876.08 267.438 2876.66 264.44C2877.23 261.443 2878.44 258.602 2880.2 256.107C2881.96 253.612 2884.23 251.52 2886.86 249.969C2889.49 248.419 2892.41 247.446 2895.45 247.115C2898.48 246.785 2901.55 247.104 2904.46 248.051C2907.36 248.998 2910.02 250.553 2912.28 252.61C2914.53 254.668 2916.32 257.182 2917.53 259.985C2918.74 262.788 2919.34 265.817 2919.28 268.869C2922.08 294.356 2909.93 322.639 2885.09 348.396C2857.29 376.894 2810.72 404.532 2772.49 404.532Z" fill="#793F90"/>
<path d="M425.021 698.872C421.38 698.82 417.812 697.845 414.651 696.038C411.491 694.231 408.84 691.651 406.949 688.539C405.057 685.428 403.987 681.888 403.837 678.249C403.687 674.611 404.464 670.995 406.094 667.739C494.654 495.995 541.542 348.717 557.942 265.319C482.663 318.014 367.917 416.307 243.652 555.681C239.701 559.094 234.643 560.954 229.422 560.912C224.2 560.871 219.172 558.932 215.276 555.456C211.379 551.981 208.879 547.207 208.244 542.024C207.608 536.841 208.879 531.604 211.82 527.29C363.077 357.374 502.182 246.499 574.826 203.214C578.182 201.269 582.001 200.267 585.88 200.315C589.758 200.363 593.552 201.459 596.858 203.487C600.164 205.515 602.861 208.4 604.662 211.835C606.463 215.27 607.301 219.128 607.089 223.001C602.357 291.774 555.039 472.175 444.056 687.15C442.262 690.661 439.538 693.611 436.181 695.679C432.824 697.746 428.963 698.851 425.021 698.872Z" fill="#793F90"/>
<path d="M460.133 552.294C440.652 551.744 421.594 546.486 404.588 536.969C362.969 515.084 327.48 474.434 320.221 440.182C319.209 437.3 318.822 434.235 319.087 431.192C319.351 428.149 320.261 425.197 321.755 422.533C323.25 419.869 325.294 417.554 327.753 415.741C330.212 413.929 333.028 412.661 336.015 412.022C339.002 411.383 342.091 411.388 345.076 412.036C348.061 412.684 350.874 413.96 353.327 415.779C355.781 417.599 357.818 419.92 359.305 422.589C360.791 425.257 361.692 428.212 361.947 431.256C366.572 452.764 394.64 483.306 424.483 499.061C443.464 509.008 460.885 512.019 472.392 507.288C477.434 505.973 482.782 506.533 487.442 508.865C492.102 511.196 495.757 515.139 497.729 519.963C499.7 524.786 499.853 530.161 498.16 535.089C496.467 540.016 493.043 544.162 488.524 546.755C479.512 550.437 469.867 552.318 460.133 552.294Z" fill="#793F90"/>
</svg>
