<svg width="3662" height="628" viewBox="0 0 3662 628" fill="none" xmlns="http://www.w3.org/2000/svg">
<path d="M2300.55 622.504C2276.01 618.313 2255.05 608.135 2238.29 592.57C2204.16 561.439 2195.78 516.538 2193.98 484.21C2191.59 424.342 2194.58 327.955 2196.98 250.127C2198.17 212.411 2199.37 180.082 2199.37 162.721C2199.37 95.0702 2245.47 51.3668 2316.12 50.1694C2345.46 50.1694 2373 60.9456 2393.35 81.8993C2416.7 105.846 2428.67 139.971 2427.48 178.885C2426.88 192.056 2416.1 202.233 2402.93 201.634C2389.76 201.036 2379.58 190.26 2380.18 177.089C2381.38 151.346 2373.59 129.195 2359.82 114.826C2348.45 103.452 2334.08 97.4648 2317.32 97.4648C2296.36 97.4648 2247.27 104.649 2247.27 162.122C2247.27 180.681 2246.07 213.009 2244.87 251.325C2242.48 324.363 2239.49 424.342 2241.88 481.815C2243.08 505.163 2248.47 536.893 2270.62 557.248C2286.18 571.616 2308.93 578.202 2337.67 577.004C2387.96 574.61 2398.74 537.492 2401.13 469.841V466.249C2402.93 424.342 2399.94 377.645 2397.54 351.303C2378.38 351.303 2349.65 351.303 2325.1 351.303C2311.93 350.705 2301.75 339.929 2301.75 326.758C2301.75 313.587 2313.13 303.409 2326.3 303.409C2365.81 304.008 2418.5 303.409 2419.1 303.409C2431.67 303.409 2441.85 312.39 2443.04 324.962C2443.64 327.955 2450.83 402.79 2448.43 468.045V471.637C2446.64 520.13 2443.04 620.109 2339.47 624.898C2325.7 625.497 2312.53 624.898 2300.55 622.504Z" fill="#793F90"/>
<path d="M2004.79 624.302C1920.98 617.118 1889.84 547.073 1888.65 487.205C1887.45 416.561 1903.01 224.985 1908.4 171.104C1919.78 63.9411 1981.44 47.7768 2017.37 48.3755C2091.01 48.3755 2129.32 90.2828 2132.32 172.301L2147.88 464.455C2147.88 544.678 2108.97 624.302 2020.96 625.499C2016.17 624.9 2010.78 624.9 2004.79 624.302ZM2029.34 96.2696C2025.75 95.6709 2022.16 95.6709 2017.97 95.6709C2003.6 95.6709 1964.68 95.6709 1956.3 175.893C1950.91 228.577 1935.34 417.16 1936.54 486.008C1937.14 507.56 1943.73 578.204 2021.56 577.006C2099.39 576.408 2101.18 476.429 2101.18 465.054L2085.62 174.097C2085.62 174.097 2085.62 174.097 2085.62 173.499C2083.22 116.026 2061.67 99.263 2029.34 96.2696Z" fill="#793F90"/>
<path d="M1755.73 624.899C1755.73 624.899 1755.14 624.899 1755.73 624.899C1741.96 624.3 1731.79 613.524 1731.79 600.353L1735.98 426.737C1736.58 413.566 1746.75 403.389 1759.93 403.389H1760.52C1773.7 403.987 1783.87 414.764 1783.87 427.934L1779.68 601.55C1779.08 614.721 1768.91 624.899 1755.73 624.899Z" fill="#793F90"/>
<path d="M1759.93 451.284C1759.33 451.284 1759.33 451.284 1758.73 451.284C1746.75 450.685 1737.17 441.106 1736.58 429.133C1729.39 302.213 1601.87 89.0845 1600.67 87.2885C1594.08 75.9137 1597.68 61.5454 1609.05 54.96C1620.43 48.3745 1634.8 51.9666 1641.38 63.3415C1645.57 69.9269 1719.21 193.254 1758.73 312.989C1805.43 112.433 1866.49 16.6447 1869.49 11.8553C1876.67 1.07916 1891.64 -2.51293 1902.42 4.67119C1913.19 11.8553 1916.79 26.2235 1909.6 37.5984C1909 38.7957 1828.78 166.314 1783.87 432.126C1781.48 442.902 1771.3 451.284 1759.93 451.284Z" fill="#793F90"/>
<path d="M1298.92 626.694C1297.13 627.293 1294.73 627.293 1292.94 627.293C1279.77 627.293 1268.99 616.517 1269.59 603.346L1270.79 452.48C1270.79 439.309 1281.56 428.533 1294.73 429.131C1307.91 429.131 1318.68 439.907 1318.08 453.078L1316.89 603.945C1316.29 615.319 1309.1 624.299 1298.92 626.694Z" fill="#793F90"/>
<path d="M1300.12 476.427C1298.33 477.026 1295.93 477.026 1293.54 477.026C1282.16 477.026 1271.98 468.046 1270.79 456.671C1240.85 257.312 1146.26 88.4851 1145.06 86.6891C1138.47 75.3143 1142.66 60.946 1154.04 54.3606C1165.41 47.7752 1179.78 51.9659 1186.37 63.3407C1189.96 69.3275 1255.22 186.069 1295.93 343.521C1345.02 171.102 1416.27 66.3341 1419.86 60.946C1427.05 50.1699 1442.01 47.1765 1452.79 54.9593C1463.57 62.1434 1466.56 77.1103 1458.78 87.8864C1457.58 89.0838 1359.99 233.365 1317.48 457.27C1315.69 466.848 1308.5 474.032 1300.12 476.427Z" fill="#793F90"/>
<path d="M3081.86 621.907C3074.67 617.717 3070.48 610.533 3070.48 601.553L3066.29 80.1057C3066.29 66.9349 3076.47 56.1587 3089.64 56.1587C3102.81 56.1587 3113.59 66.3362 3113.59 79.5071L3117.78 600.954C3117.78 614.125 3107.6 624.901 3094.43 624.901C3089.64 624.901 3085.45 623.703 3081.86 621.907Z" fill="#793F90"/>
<path d="M3287.81 621.308C3281.82 617.716 3277.63 612.328 3276.44 605.144C3235.12 375.851 3100.42 333.345 3098.62 332.746C3090.24 330.351 3083.65 323.167 3081.86 314.786C3080.06 305.806 3083.65 297.424 3090.24 291.437C3091.44 290.24 3223.15 183.676 3239.32 56.7563C3241.11 43.5854 3253.09 34.6053 3265.66 36.4013C3278.83 38.1973 3287.81 50.1709 3286.01 62.7431C3272.24 171.103 3191.42 262.102 3147.71 304.009C3148.31 304.009 3148.31 304.608 3148.91 304.608C3199.8 335.141 3289.61 412.969 3323.13 596.762C3325.53 609.933 3317.15 621.907 3303.98 624.301C3297.99 625.499 3292.6 624.301 3287.81 621.308Z" fill="#793F90"/>
<path d="M722.375 621.907C718.783 623.703 714.592 624.9 710.401 625.499C697.23 625.499 686.453 614.723 686.453 601.552L685.256 78.9075C685.256 68.1313 691.842 59.1512 702.618 56.1578C744.528 44.1843 785.838 48.3751 818.168 68.73C860.077 94.4731 888.216 145.361 901.387 219.596C915.756 301.615 894.203 348.91 873.248 374.055C846.906 405.785 811.582 417.758 787.035 417.758C773.864 417.758 763.087 407.581 763.087 394.41C763.087 381.239 773.265 370.463 786.437 370.463C797.213 370.463 819.964 364.476 836.728 344.121C857.682 318.977 863.669 278.865 854.689 228.577C843.912 168.11 823.556 128.598 793.621 110.039C773.864 97.4664 751.712 96.2691 733.751 99.2625L734.35 602.749C734.35 609.933 729.56 617.716 722.375 621.907Z" fill="#793F90"/>
<path d="M975.027 623.103C972.034 624.3 969.04 624.899 965.448 624.899C952.277 624.899 942.099 614.123 942.099 600.952L948.684 78.3076C948.684 67.5314 955.869 58.5513 966.047 55.5579C1004.96 44.7817 1041.48 48.9724 1072.02 66.9327C1114.52 92.0771 1144.46 143.563 1162.42 219.595C1178.59 289.042 1157.03 335.14 1136.08 360.883C1107.94 396.205 1064.83 414.764 1037.29 414.764C1024.12 414.764 1013.34 403.987 1013.34 390.816C1013.34 377.646 1024.12 366.869 1037.29 366.869C1047.47 366.869 1077.4 357.889 1098.96 330.949C1119.91 305.206 1125.3 271.081 1115.72 229.773C1101.35 166.912 1078 125.603 1047.47 107.044C1032.5 98.0639 1015.14 94.4718 995.982 96.8665L989.995 600.353C989.396 611.129 983.409 619.511 975.027 623.103Z" fill="#793F90"/>
<path d="M41.0532 618.913C36.8623 623.104 30.8752 625.498 24.2895 625.498C11.1181 624.9 0.940186 614.123 0.940186 600.953L16.5064 77.7097C17.1051 64.5388 27.8818 54.3613 41.0532 54.3613C54.2246 54.96 64.4025 65.7362 64.4025 78.907L48.8362 602.15C48.2375 608.735 45.2441 614.722 41.0532 618.913Z" fill="#793F90"/>
<path d="M266.165 617.117C261.974 620.709 257.184 622.505 251.197 623.103C238.026 623.702 227.249 613.525 226.651 600.354L205.696 77.1109C205.097 63.94 215.275 53.1638 228.447 52.5652C241.618 51.9665 252.395 62.144 252.993 75.3149L273.948 598.558C274.547 605.742 271.553 612.327 266.165 617.117Z" fill="#793F90"/>
<path d="M252.994 408.779C250.001 411.772 246.408 413.568 242.217 414.765C181.749 428.535 101.523 429.732 28.481 417.759C15.3096 415.364 6.92788 403.39 8.72398 390.22C11.1188 377.049 23.0927 368.667 36.2641 370.463C103.319 381.838 176.36 380.641 231.441 368.069C244.013 365.075 257.185 372.858 260.179 386.029C261.975 394.41 258.981 402.792 252.994 408.779Z" fill="#793F90"/>
<path d="M2492.14 623.702C2481.96 620.11 2475.37 609.933 2476.57 598.558C2506.51 340.529 2556.2 144.163 2592.12 64.5388C2595.71 56.756 2603.49 51.368 2612.48 50.7693C2621.46 50.1706 2629.84 54.3613 2634.03 62.1441C2674.14 129.196 2747.78 324.963 2783.7 591.972C2785.5 605.143 2776.52 617.117 2763.35 618.913C2750.18 620.709 2738.2 611.729 2736.41 598.558C2707.67 387.824 2654.98 220.793 2616.07 133.387C2584.94 227.379 2547.22 396.205 2523.27 603.946C2521.47 617.117 2510.1 626.097 2496.93 624.9C2495.13 624.9 2493.33 624.301 2492.14 623.702Z" fill="#793F90"/>
<path d="M2543.62 459.065C2532.25 454.875 2522.07 450.085 2514.29 444.697C2503.51 437.513 2501.12 422.546 2508.3 411.77C2515.49 400.994 2530.45 398.001 2541.23 405.783C2578.35 431.526 2683.12 430.928 2705.87 405.185C2714.25 395.606 2729.82 394.409 2739.4 402.79C2748.98 411.171 2750.18 426.737 2741.79 436.316C2704.68 479.42 2604.09 480.019 2543.62 459.065Z" fill="#793F90"/>
<path d="M3369.83 623.702C3359.66 620.11 3353.07 609.933 3354.27 598.558C3384.2 340.529 3433.89 144.163 3469.82 64.5388C3473.41 56.756 3481.19 51.368 3490.17 50.7693C3499.15 50.1706 3507.53 54.3613 3511.73 62.1441C3551.84 129.196 3625.48 324.963 3661.4 591.972C3663.2 605.143 3654.22 617.117 3641.05 618.913C3627.87 620.709 3615.9 611.729 3614.1 598.558C3585.37 387.824 3532.68 220.793 3493.76 133.387C3462.63 227.379 3424.91 396.205 3400.97 603.946C3399.17 617.117 3387.79 626.097 3374.62 624.9C3373.43 624.9 3371.63 624.301 3369.83 623.702Z" fill="#793F90"/>
<path d="M3421.92 459.065C3410.55 454.875 3400.37 450.085 3392.58 444.697C3381.81 437.513 3379.41 422.546 3386.6 411.77C3393.78 400.994 3408.75 398.001 3419.53 405.783C3456.65 431.526 3561.42 430.928 3584.17 405.185C3592.55 395.606 3608.12 394.409 3617.7 402.79C3627.28 411.171 3628.47 426.737 3620.09 436.316C3582.37 479.42 3481.79 480.019 3421.92 459.065Z" fill="#793F90"/>
<path d="M1600.07 398.6C1599.47 398.6 1598.87 398.6 1598.28 398.6C1555.17 399.798 1512.06 399.798 1469.55 398.6C1456.38 398.002 1446.2 387.226 1446.2 374.055C1446.8 360.884 1457.58 350.706 1470.75 350.706C1512.66 351.904 1554.57 351.904 1596.48 350.706C1609.65 350.108 1620.43 360.884 1621.03 373.456C1621.62 386.627 1612.64 396.804 1600.07 398.6Z" fill="#F0783B"/>
<path d="M2977.08 398.6C2976.49 398.6 2975.89 398.6 2975.29 398.6C2932.18 399.798 2889.08 399.798 2846.57 398.6C2833.4 398.002 2823.22 387.226 2823.22 374.055C2823.82 360.884 2834.59 350.706 2847.77 350.706C2889.67 351.904 2931.58 351.904 2973.49 350.706C2986.66 350.108 2997.44 360.884 2998.04 373.456C2998.64 386.627 2989.06 396.804 2977.08 398.6Z" fill="#F0783B"/>
<path d="M627.181 621.308C624.188 623.104 620.596 624.9 616.405 625.499C603.233 627.295 591.858 617.716 590.062 604.545C564.916 390.818 516.421 225.583 479.901 138.775C443.38 233.964 398.477 396.206 370.338 602.749C368.542 615.92 356.568 624.9 343.397 623.104C330.225 621.308 321.245 609.334 323.041 596.163C357.167 345.318 415.84 156.137 456.551 71.1245C460.144 63.3417 468.525 57.9537 476.907 57.355C485.888 56.7563 494.269 61.5457 498.46 69.3285C536.777 135.782 605.628 331.549 636.76 599.157C638.557 607.538 634.366 616.518 627.181 621.308Z" fill="#793F90"/>
<path d="M568.509 463.855C552.344 474.631 531.988 481.815 507.441 484.21C455.354 489.598 397.28 474.631 369.141 447.691C359.562 438.711 359.562 423.744 368.542 414.165C377.523 404.586 392.49 404.586 402.07 413.566C420.031 430.928 464.335 441.105 502.053 436.914C526.001 434.52 543.962 426.138 551.146 414.763C558.331 403.987 573.298 400.994 584.075 408.178C594.852 415.362 597.845 430.329 590.661 441.105C585.871 450.085 578.088 457.868 568.509 463.855Z" fill="#793F90"/>
</svg>
